<svg xmlns="http://www.w3.org/2000/svg" xmlns:xlink="http://www.w3.org/1999/xlink" width="3000" zoomAndPan="magnify" viewBox="0 0 2250 2250.000011" height="3000" preserveAspectRatio="xMidYMid meet" version="1.0"><defs><clipPath id="id1"><path d="M 0.5 0 L 2249.5 0 L 2249.5 2249 L 0.5 2249 Z M 0.5 0 " clip-rule="nonzero"/></clipPath><clipPath id="id2"><path d="M 0.5 337.273438 L 2249.5 337.273438 L 2249.5 2248.925781 L 0.5 2248.925781 Z M 0.5 337.273438 " clip-rule="nonzero"/></clipPath><clipPath id="id3"><path d="M 0.5 0 L 2249.5 0 L 2249.5 440.523438 L 0.5 440.523438 Z M 0.5 0 " clip-rule="nonzero"/></clipPath></defs><g clip-path="url(#id1)"><path fill="#ffffff" d="M 0.5 0 L 2249.5 0 L 2249.5 2256.496094 L 0.5 2256.496094 Z M 0.5 0 " fill-opacity="1" fill-rule="nonzero"/><path fill="#ffffff" d="M 0.5 0 L 2249.5 0 L 2249.5 2249 L 0.5 2249 Z M 0.5 0 " fill-opacity="1" fill-rule="nonzero"/><path fill="#ffffff" d="M 0.5 0 L 2249.5 0 L 2249.5 2249 L 0.5 2249 Z M 0.5 0 " fill-opacity="1" fill-rule="nonzero"/></g><g clip-path="url(#id2)"><path fill="#3770a0" d="M 0.503906 337.273438 L 2249.496094 337.273438 L 2249.496094 2248.925781 L 0.503906 2248.925781 L 0.503906 337.273438 " fill-opacity="1" fill-rule="nonzero"/></g><g clip-path="url(#id3)"><path fill="#ffffff" d="M 0.515625 -63.253906 L 2249.484375 -63.253906 L 2249.484375 440.523438 L 0.515625 440.523438 L 0.515625 -63.253906 " fill-opacity="1" fill-rule="nonzero"/></g></svg>